<svg width="24" height="27" viewBox="0 0 24 27" fill="none" xmlns="http://www.w3.org/2000/svg">
<path d="M22.5416 8.39167L14.8791 1.67421C14.1767 1.04595 13.2673 0.698608 12.3249 0.698608C11.3825 0.698608 10.4732 1.04595 9.77076 1.67421L2.10826 8.39167C1.70262 8.75446 1.37892 9.1995 1.15871 9.69716C0.938507 10.1948 0.82685 10.7337 0.831176 11.2779V22.4396C0.831176 23.4557 1.23482 24.4302 1.95332 25.1487C2.67182 25.8672 3.64632 26.2708 4.66243 26.2708H19.9874C21.0035 26.2708 21.978 25.8672 22.6965 25.1487C23.415 24.4302 23.8187 23.4557 23.8187 22.4396V11.2651C23.8212 10.7231 23.7087 10.1867 23.4885 9.69134C23.2684 9.19601 22.9456 8.75303 22.5416 8.39167V8.39167ZM14.8791 23.7167H9.77076V17.3313C9.77076 16.9926 9.90531 16.6677 10.1448 16.4282C10.3843 16.1887 10.7091 16.0542 11.0478 16.0542H13.602C13.9407 16.0542 14.2655 16.1887 14.505 16.4282C14.7445 16.6677 14.8791 16.9926 14.8791 17.3313V23.7167ZM21.2645 22.4396C21.2645 22.7783 21.13 23.1031 20.8905 23.3426C20.651 23.5821 20.3261 23.7167 19.9874 23.7167H17.4333V17.3313C17.4333 16.3151 17.0296 15.3407 16.3111 14.6222C15.5926 13.9037 14.6181 13.5 13.602 13.5H11.0478C10.0317 13.5 9.05724 13.9037 8.33874 14.6222C7.62024 15.3407 7.21659 16.3151 7.21659 17.3313V23.7167H4.66243C4.32372 23.7167 3.99889 23.5821 3.75939 23.3426C3.51989 23.1031 3.38534 22.7783 3.38534 22.4396V11.2651C3.38557 11.0838 3.42441 10.9046 3.49928 10.7394C3.57415 10.5743 3.68333 10.427 3.81955 10.3073L11.482 3.60261C11.7151 3.39787 12.0147 3.28495 12.3249 3.28495C12.6351 3.28495 12.9347 3.39787 13.1678 3.60261L20.8303 10.3073C20.9665 10.427 21.0757 10.5743 21.1506 10.7394C21.2254 10.9046 21.2643 11.0838 21.2645 11.2651V22.4396Z" fill="#ED017F"/>
</svg>
