<svg width="27" height="21" viewBox="0 0 27 21" fill="none" xmlns="http://www.w3.org/2000/svg">
<path d="M22.2646 7.30728H21.8559L20.2596 3.32278C19.9745 2.61432 19.4842 2.00723 18.8516 1.57944C18.219 1.15164 17.473 0.922647 16.7093 0.92186H9.0468C8.1596 0.919321 7.29901 1.22477 6.61194 1.78608C5.92486 2.34739 5.45389 3.12975 5.27941 3.99963L4.61532 7.30728H4.38545C3.36934 7.30728 2.39485 7.71092 1.67635 8.42942C0.957848 9.14792 0.554199 10.1224 0.554199 11.1385V14.9698C0.554199 15.3085 0.688749 15.6333 0.928248 15.8728C1.16775 16.1123 1.49258 16.2469 1.83128 16.2469H3.10837C3.10837 17.263 3.51201 18.2375 4.23051 18.956C4.94901 19.6745 5.9235 20.0781 6.93962 20.0781C7.95573 20.0781 8.93022 19.6745 9.64872 18.956C10.3672 18.2375 10.7709 17.263 10.7709 16.2469H15.8792C15.8792 17.263 16.2828 18.2375 17.0013 18.956C17.7198 19.6745 18.6943 20.0781 19.7104 20.0781C20.7266 20.0781 21.7011 19.6745 22.4196 18.956C23.1381 18.2375 23.5417 17.263 23.5417 16.2469H24.8188C25.1575 16.2469 25.4823 16.1123 25.7218 15.8728C25.9613 15.6333 26.0959 15.3085 26.0959 14.9698V11.1385C26.0959 10.1224 25.6922 9.14792 24.9737 8.42942C24.2552 7.71092 23.2807 7.30728 22.2646 7.30728V7.30728ZM14.6021 3.47603H16.7093C16.9629 3.47832 17.2101 3.55607 17.4193 3.69935C17.6286 3.84264 17.7904 4.04498 17.8842 4.28059L19.0974 7.30728H14.6021V3.47603ZM7.78249 4.49769C7.8422 4.20489 8.00269 3.94229 8.23604 3.75562C8.46938 3.56894 8.7608 3.47 9.05957 3.47603H12.0479V7.30728H7.22057L7.78249 4.49769ZM6.93962 17.5239C6.68703 17.5239 6.44012 17.449 6.23011 17.3087C6.02009 17.1684 5.8564 16.9689 5.75974 16.7356C5.66308 16.5022 5.63779 16.2454 5.68707 15.9977C5.73635 15.75 5.85798 15.5224 6.03658 15.3438C6.21518 15.1652 6.44274 15.0436 6.69047 14.9943C6.9382 14.945 7.19498 14.9703 7.42833 15.067C7.66169 15.1636 7.86114 15.3273 8.00147 15.5373C8.1418 15.7474 8.2167 15.9943 8.2167 16.2469C8.2167 16.5856 8.08215 16.9104 7.84265 17.1499C7.60315 17.3894 7.27832 17.5239 6.93962 17.5239ZM19.7104 17.5239C19.4579 17.5239 19.211 17.449 19.0009 17.3087C18.7909 17.1684 18.6272 16.9689 18.5306 16.7356C18.4339 16.5022 18.4086 16.2454 18.4579 15.9977C18.5072 15.75 18.6288 15.5224 18.8074 15.3438C18.986 15.1652 19.2136 15.0436 19.4613 14.9943C19.709 14.945 19.9658 14.9703 20.1992 15.067C20.4325 15.1636 20.632 15.3273 20.7723 15.5373C20.9126 15.7474 20.9875 15.9943 20.9875 16.2469C20.9875 16.5856 20.853 16.9104 20.6135 17.1499C20.374 17.3894 20.0492 17.5239 19.7104 17.5239ZM23.5417 13.6927H22.5456C22.1865 13.2976 21.7488 12.982 21.2606 12.766C20.7723 12.5499 20.2443 12.4384 19.7104 12.4384C19.1766 12.4384 18.6486 12.5499 18.1603 12.766C17.6721 12.982 17.2344 13.2976 16.8753 13.6927H9.77474C9.41565 13.2976 8.97795 12.982 8.48972 12.766C8.00149 12.5499 7.4735 12.4384 6.93962 12.4384C6.40573 12.4384 5.87775 12.5499 5.38951 12.766C4.90128 12.982 4.46358 13.2976 4.10449 13.6927H3.10837V11.1385C3.10837 10.7998 3.24292 10.475 3.48242 10.2355C3.72191 9.99599 4.04675 9.86144 4.38545 9.86144H22.2646C22.6033 9.86144 22.9282 9.99599 23.1677 10.2355C23.4071 10.475 23.5417 10.7998 23.5417 11.1385V13.6927Z" fill="#ED017F"/>
</svg>
